# Made in Blockbench 5.1.3
mtllib bh_barrier.mtl

o cylinder
v 0.2071067811865476 0.5 -0.5
v 0 -0.5 0
v 0 0.5 0
v 0.20710678118654754 -0.5 0.5
v 0.20710678118654754 0.5 0.5
v 0.5 -0.5 0.20710678118654757
v 0.5 0.5 0.20710678118654757
v 0.5 -0.5 -0.20710678118654752
v 0.5 0.5 -0.20710678118654752
v 0.2071067811865476 -0.5 -0.5
v -0.2071067811865475 -0.5 -0.5000000000000001
v -0.2071067811865475 0.5 -0.5000000000000001
v -0.4999999999999999 -0.5 -0.20710678118654785
v -0.4999999999999999 0.5 -0.20710678118654785
v -0.49999999999999994 -0.5 0.20710678118654766
v -0.49999999999999994 0.5 0.20710678118654766
v -0.20710678118654788 -0.5 0.4999999999999999
v -0.20710678118654788 0.5 0.4999999999999999
vt 0.25 0.9267765625
vt 0.1767765625 1
vt 0.125 0.875
vt 0.140625 0.21875
vt 0.25 0.21875
vt 0.25 0.46875
vt 0.140625 0.46875
vt 0.4424015625 0.75
vt 0.515625 0.8232234375
vt 0.390625 0.875
vt 0.25 0.8232234375
vt 0.25 0.9267765625
vt 0.125 0.875
vt 0 0.484375
vt 0.109375 0.484375
vt 0.109375 0.734375
vt 0 0.734375
vt 0.515625 0.8232234375
vt 0.515625 0.9267765625
vt 0.390625 0.875
vt 0.1767765625 0.75
vt 0.25 0.8232234375
vt 0.125 0.875
vt 0 0.21875
vt 0.109375 0.21875
vt 0.109375 0.46875
vt 0 0.46875
vt 0.515625 0.9267765625
vt 0.4424015625 1
vt 0.390625 0.875
vt 0.0732234375 0.75
vt 0.1767765625 0.75
vt 0.125 0.875
vt 0.140625 0.484375
vt 0.25 0.484375
vt 0.25 0.734375
vt 0.140625 0.734375
vt 0.4424015625 1
vt 0.3388484375 1
vt 0.390625 0.875
vt 0 0.8232234375
vt 0.0732234375 0.75
vt 0.125 0.875
vt 0.40625 0.21875
vt 0.515625 0.21875
vt 0.515625 0.46875
vt 0.40625 0.46875
vt 0.3388484375 1
vt 0.265625 0.9267765625
vt 0.390625 0.875
vt 0 0.9267765625
vt 0 0.8232234375
vt 0.125 0.875
vt 0.265625 0.21875
vt 0.375 0.21875
vt 0.375 0.46875
vt 0.265625 0.46875
vt 0.265625 0.9267765625
vt 0.265625 0.8232234375
vt 0.390625 0.875
vt 0.0732234375 1
vt 0 0.9267765625
vt 0.125 0.875
vt 0.40625 0.484375
vt 0.515625 0.484375
vt 0.515625 0.734375
vt 0.40625 0.734375
vt 0.265625 0.8232234375
vt 0.3388484375 0.75
vt 0.390625 0.875
vt 0.1767765625 1
vt 0.0732234375 1
vt 0.125 0.875
vt 0.265625 0.484375
vt 0.375 0.484375
vt 0.375 0.734375
vt 0.265625 0.734375
vt 0.3388484375 0.75
vt 0.4424015625 0.75
vt 0.390625 0.875
vn 0 -1 0
vn 0.7071067811865476 0 0.7071067811865476
vn 0 1 0
vn 0 -1 0
vn 1 0 0
vn 0 1 0
vn 0 -1 0
vn 0.7071067811865476 0 -0.7071067811865475
vn 0 1 0
vn 0 -1 0
vn 2.6803154833089315e-16 0 -1
vn 0 1 0
vn 0 -1 0
vn -0.7071067811865474 0 -0.7071067811865477
vn 0 1 0
vn 0 -1 0
vn -1 0 -1.3401577416544645e-16
vn 0 1 0
vn 0 -1 0
vn -0.7071067811865477 0 0.7071067811865474
vn 0 1 0
vn 0 -1 0
vn -2.680315483308929e-16 0 1
vn 0 1 0
usemtl m_1709e5be-4f47-eff4-df94-f0edc7479d2f
f 6/1/1 4/2/1 2/3/1
f 4/4/2 6/5/2 7/6/2 5/7/2
f 5/8/3 7/9/3 3/10/3
f 8/11/4 6/12/4 2/13/4
f 6/14/5 8/15/5 9/16/5 7/17/5
f 7/18/6 9/19/6 3/20/6
f 10/21/7 8/22/7 2/23/7
f 8/24/8 10/25/8 1/26/8 9/27/8
f 9/28/9 1/29/9 3/30/9
f 11/31/10 10/32/10 2/33/10
f 10/34/11 11/35/11 12/36/11 1/37/11
f 1/38/12 12/39/12 3/40/12
f 13/41/13 11/42/13 2/43/13
f 11/44/14 13/45/14 14/46/14 12/47/14
f 12/48/15 14/49/15 3/50/15
f 15/51/16 13/52/16 2/53/16
f 13/54/17 15/55/17 16/56/17 14/57/17
f 14/58/18 16/59/18 3/60/18
f 17/61/19 15/62/19 2/63/19
f 15/64/20 17/65/20 18/66/20 16/67/20
f 16/68/21 18/69/21 3/70/21
f 4/71/22 17/72/22 2/73/22
f 17/74/23 4/75/23 5/76/23 18/77/23
f 18/78/24 5/79/24 3/80/24